# xmcd CD database file
#
# Track frame offsets:
#	150
#	5717
#	33972
#	54236
#	73442
#	97771
#	124575
#	140100
#	168394
#	185799
#	201777
#	210614
#	221550
#	238415
#	255655
#	259465
#
# Disc length: 3784 seconds
#
# Revision: 0
# Processed by: cddbd v1.5.2PL0 Copyright (c) Steve Scherf et al.
# Submitted via: CDex 1.51
#
DISCID=fa0ec610
DTITLE=Various Artist - Jazz At The Philharmonic - Seattle 1956: Disc 2
DYEAR=2011
DGENRE=Jazz
TTITLE0=Spoken Introduction: Norman Granz
TTITLE1=Bernie's Tune
TTITLE2=My One And Only Love
TTITLE3=Drum Boogie
TTITLE4=Drum Boogie pt.2
TTITLE5=How About You
TTITLE6=You Will Still Be Mine
TTITLE7=Title Unknown
TTITLE8=Just One Of Those Things
TTITLE9=Do Nothing Till You Hear From Me
TTITLE10=Solitude
TTITLE11=Roll 'Em Pete
TTITLE12=Easy To Love
TTITLE13=Air Mail Specialist
TTITLE14=Spoken Introduction: Norman Granz
TTITLE15=Finale with harmonica (Title unknown)
EXTD=YEAR: 2011
EXTT0=
EXTT1=
EXTT2=
EXTT3=
EXTT4=
EXTT5=
EXTT6=
EXTT7=
EXTT8=
EXTT9=
EXTT10=
EXTT11=
EXTT12=
EXTT13=
EXTT14=
EXTT15=
PLAYORDER=
